# xmcd
#
# Track frame offsets: 
#        150
#        23231
#        45730
#        60083
#        71024
#        80423
#        89644
#        100008
#        111194
#        123254
#        160142
#        173947
#        207263
#
# Disc length: 3116 seconds
#
# Revision: 0
# Processed by: cddbd v1.5.2PL0 Copyright (c) Steve Scherf et al.
# Submitted via: ExactAudioCopy v0.95a5
#
DISCID=a60c2a0d
DTITLE=Canned Heat - Anthology
DYEAR=2007
DGENRE=Rock
TTITLE0=On the Road Again (2007)
TTITLE1=That Smell (2007)
TTITLE2=Goin' up the Country (2007)
TTITLE3=Spoonful
TTITLE4=Big Road Blues
TTITLE5=Rollin' and Tumblin'
TTITLE6=Dimples
TTITLE7=Talk to Me, Baby
TTITLE8=Got My Mojo Working
TTITLE9=Wish You Would
TTITLE10=Louise
TTITLE11=Bullfrog Blues
TTITLE12=Dust My Broom
EXTD=
EXTT0=
EXTT1=
EXTT2=
EXTT3=
EXTT4=
EXTT5=
EXTT6=
EXTT7=
EXTT8=
EXTT9=
EXTT10=
EXTT11=
EXTT12=
PLAYORDER=
